<?xml version="1.0" encoding="UTF-8" standalone="no"?>
<!DOCTYPE svg PUBLIC "-//W3C//DTD SVG 1.1//EN" "http://www.w3.org/Graphics/SVG/1.1/DTD/svg11.dtd">
<svg width="100%" height="100%" viewBox="0 0 256 256" version="1.1" xmlns="http://www.w3.org/2000/svg" xmlns:xlink="http://www.w3.org/1999/xlink" xml:space="preserve" xmlns:serif="http://www.serif.com/" style="fill-rule:evenodd;clip-rule:evenodd;stroke-linejoin:round;stroke-miterlimit:2;">
    <rect x="0" y="0" width="256" height="256" style="fill:rgb(82,187,98);"/>
    <g transform="matrix(0.266588,0,0,0.266588,26.1742,83.0142)">
        <g id="payday_logo_white">
            <g>
                <g>
                    <g transform="matrix(1,0,0,1,-578.54,-372)">
                        <path d="M926.89,557.5L957.46,557.5L915.56,665.7C909.833,680.093 902.07,690.333 892.27,696.42C882.47,702.507 869.693,704.8 853.94,703.3L852.48,682.6C870.9,682.987 880.86,677.94 882.36,667.46L840.56,557.46L871.23,557.46L899.06,643.4L926.89,557.5Z" style="fill:white;fill-rule:nonzero;"/>
                    </g>
                    <g transform="matrix(1,0,0,1,-578.54,-372)">
                        <path d="M1311.89,557.5L1342.46,557.5L1300.56,665.7C1294.83,680.093 1287.06,690.333 1277.27,696.42C1267.48,702.507 1254.7,704.8 1238.94,703.3L1237.48,682.6C1255.9,682.987 1265.86,677.94 1267.36,667.46L1225.56,557.46L1256.23,557.46L1284.06,643.4L1311.89,557.5Z" style="fill:white;fill-rule:nonzero;"/>
                    </g>
                    <g transform="matrix(1,0,0,1,-578.54,-372)">
                        <path d="M638.19,670.81C648.446,670.924 658.585,668.614 667.78,664.07C676.713,659.623 684.235,652.776 689.5,644.3C695,635.633 697.753,625.633 697.76,614.3C697.767,602.967 695.013,592.94 689.5,584.22C684.245,575.722 676.722,568.857 667.78,564.4C649.054,555.419 627.226,555.419 608.5,564.4C599.562,568.847 592.049,575.716 586.82,584.22C581.347,592.947 578.613,602.973 578.62,614.3L578.62,614.53L578.54,614.53L578.54,709.53L606.54,709.53L606.54,657C606.54,657 617,670.81 638.19,670.81ZM660.5,637.71C648.221,649.957 628.049,649.957 615.77,637.71C609.69,631.55 606.647,623.703 606.64,614.17C606.633,604.637 609.677,596.807 615.77,590.68C628.092,578.485 648.228,578.485 660.55,590.68C666.67,596.84 669.73,604.653 669.73,614.12C669.73,623.587 666.653,631.45 660.5,637.71Z" style="fill:white;fill-rule:nonzero;"/>
                    </g>
                    <g transform="matrix(1,0,0,1,-578.54,-372)">
                        <path d="M1020.36,557.69C1010.1,557.574 999.964,559.883 990.77,564.43C981.818,568.868 974.278,575.716 969,584.2C963.5,592.867 960.75,602.867 960.75,614.2C960.75,625.533 963.5,635.57 969,644.31C974.256,652.81 981.783,659.676 990.73,664.13C1009.45,673.111 1031.28,673.111 1050,664.13C1058.94,659.683 1066.45,652.814 1071.68,644.31C1077.15,635.583 1079.89,625.557 1079.89,614.23L1079.89,614L1079.97,614L1079.97,519L1051.97,519L1051.97,571.49C1051.97,571.49 1041.54,557.69 1020.36,557.69ZM998,590.79C1010.28,578.543 1030.45,578.543 1042.73,590.79C1048.82,596.95 1051.86,604.797 1051.86,614.33C1051.86,623.863 1048.82,631.693 1042.73,637.82C1030.41,650.015 1010.27,650.015 997.95,637.82C991.83,631.66 988.77,623.847 988.77,614.38C988.77,604.913 991.847,597.05 998,590.79Z" style="fill:white;fill-rule:nonzero;"/>
                    </g>
                    <g transform="matrix(1,0,0,1,-578.54,-372)">
                        <path d="M803.76,657L803.76,671L831.76,671L831.76,614.5L831.68,614.5L831.68,614.27C831.68,602.937 828.947,592.91 823.48,584.19C818.248,575.688 810.736,568.82 801.8,564.37C783.074,555.389 761.246,555.389 742.52,564.37C733.577,568.83 726.051,575.694 720.79,584.19C715.29,592.917 712.54,602.943 712.54,614.27C712.54,625.597 715.29,635.597 720.79,644.27C726.062,652.745 733.586,659.59 742.52,664.04C751.715,668.584 761.854,670.894 772.11,670.78C793.3,670.81 803.76,657 803.76,657ZM740.57,614.21C740.57,604.737 743.63,596.923 749.75,590.77C762.069,578.576 782.201,578.576 794.52,590.77C800.607,596.89 803.65,604.72 803.65,614.26C803.65,623.8 800.607,631.647 794.52,637.8C782.244,650.046 762.076,650.046 749.8,637.8C743.64,631.547 740.563,623.687 740.57,614.22L740.57,614.21Z" style="fill:white;fill-rule:nonzero;"/>
                    </g>
                    <g transform="matrix(1,0,0,1,-578.54,-372)">
                        <path d="M1187.76,657L1187.76,671L1215.76,671L1215.76,614.5L1215.68,614.5L1215.68,614.27C1215.68,602.937 1212.95,592.91 1207.48,584.19C1202.25,575.688 1194.74,568.82 1185.8,564.37C1167.07,555.389 1145.25,555.389 1126.52,564.37C1117.58,568.83 1110.05,575.694 1104.79,584.19C1099.29,592.917 1096.54,602.943 1096.54,614.27C1096.54,625.597 1099.29,635.597 1104.79,644.27C1110.06,652.745 1117.59,659.59 1126.52,664.04C1135.71,668.584 1145.85,670.894 1156.11,670.78C1177.3,670.81 1187.76,657 1187.76,657ZM1124.57,614.21C1124.57,604.737 1127.63,596.923 1133.75,590.77C1146.07,578.576 1166.2,578.576 1178.52,590.77C1184.61,596.89 1187.65,604.72 1187.65,614.26C1187.65,623.8 1184.61,631.647 1178.52,637.8C1166.24,650.046 1146.08,650.046 1133.8,637.8C1127.64,631.547 1124.56,623.687 1124.57,614.22L1124.57,614.21Z" style="fill:white;fill-rule:nonzero;"/>
                    </g>
                    <g transform="matrix(1,0,0,1,-578.54,-372)">
                        <path d="M1285.54,475C1297.86,475 1308,485.139 1308,497.46C1308,509.781 1297.86,519.92 1285.54,519.92C1273.22,519.92 1263.08,509.781 1263.08,497.46C1263.09,485.141 1273.22,475.005 1285.54,475" style="fill:white;fill-rule:nonzero;"/>
                    </g>
                    <g transform="matrix(1,0,0,1,-578.54,-372)">
                        <path d="M1250.44,462.65C1256.96,456.076 1265.19,451.46 1274.2,449.33C1238.71,400.771 1182.06,372.003 1121.92,372C1040.49,372.002 967.832,424.708 942.55,502.11C942.109,503.461 941.885,504.874 941.885,506.295C941.885,513.701 947.979,519.795 955.385,519.795C961.213,519.795 966.413,516.021 968.22,510.48C989.831,444.133 1052.09,398.936 1121.87,398.936C1172.28,398.936 1219.9,422.533 1250.44,462.65Z" style="fill:white;fill-rule:nonzero;"/>
                    </g>
                </g>
            </g>
        </g>
    </g>
</svg>
